<svg width="600" height="400" viewBox="0 0 600 400" fill="none" xmlns="http://www.w3.org/2000/svg">
  <!-- Background Elements -->
  <circle cx="300" cy="200" r="150" fill="url(#paint0_radial)" opacity="0.6"/>
  <circle cx="300" cy="200" r="100" stroke="#1A2CFF" stroke-width="2" stroke-dasharray="10 5" opacity="0.7"/>
  
  <!-- Blockchain Network -->
  <circle cx="200" cy="150" r="15" fill="#0A1172"/>
  <circle cx="300" cy="100" r="15" fill="#0A1172"/>
  <circle cx="400" cy="150" r="15" fill="#0A1172"/>
  <circle cx="350" cy="250" r="15" fill="#0A1172"/>
  <circle cx="250" cy="250" r="15" fill="#0A1172"/>
  <circle cx="300" cy="200" r="20" fill="#00C853"/>
  
  <!-- Connection Lines -->
  <line x1="215" y1="150" x2="285" y2="100" stroke="#1A2CFF" stroke-width="2"/>
  <line x1="315" y1="100" x2="385" y2="150" stroke="#1A2CFF" stroke-width="2"/>
  <line x1="400" y1="165" x2="350" y2="235" stroke="#1A2CFF" stroke-width="2"/>
  <line x1="335" y1="250" x2="265" y2="250" stroke="#1A2CFF" stroke-width="2"/>
  <line x1="250" y1="235" x2="200" y2="165" stroke="#1A2CFF" stroke-width="2"/>
  <line x1="215" y1="150" x2="285" y2="190" stroke="#1A2CFF" stroke-width="2"/>
  <line x1="315" y1="190" x2="385" y2="150" stroke="#1A2CFF" stroke-width="2"/>
  <line x1="315" y1="210" x2="350" y2="235" stroke="#1A2CFF" stroke-width="2"/>
  <line x1="285" y1="210" x2="250" y2="235" stroke="#1A2CFF" stroke-width="2"/>
  
  <!-- Freelancer Icon -->
  <circle cx="300" cy="200" r="30" fill="#0A1172"/>
  <path d="M290 190H310M290 200H310M290 210H310" stroke="white" stroke-width="2" stroke-linecap="round"/>
  
  <!-- Animated Elements -->
  <circle cx="300" cy="200" r="40" stroke="#00C853" stroke-width="2" opacity="0.6">
    <animate attributeName="r" values="40;45;40" dur="3s" repeatCount="indefinite"/>
    <animate attributeName="opacity" values="0.6;0.3;0.6" dur="3s" repeatCount="indefinite"/>
  </circle>
  
  <!-- Small Particles -->
  <circle cx="250" cy="120" r="5" fill="#00C853" opacity="0.8">
    <animate attributeName="cy" values="120;110;120" dur="2s" repeatCount="indefinite"/>
  </circle>
  <circle cx="350" cy="120" r="5" fill="#00C853" opacity="0.8">
    <animate attributeName="cy" values="120;130;120" dur="2.5s" repeatCount="indefinite"/>
  </circle>
  <circle cx="220" cy="200" r="5" fill="#00C853" opacity="0.8">
    <animate attributeName="cx" values="220;210;220" dur="3s" repeatCount="indefinite"/>
  </circle>
  <circle cx="380" cy="200" r="5" fill="#00C853" opacity="0.8">
    <animate attributeName="cx" values="380;390;380" dur="2.7s" repeatCount="indefinite"/>
  </circle>
  
  <!-- Gradients -->
  <defs>
    <radialGradient id="paint0_radial" cx="0" cy="0" r="1" gradientUnits="userSpaceOnUse" gradientTransform="translate(300 200) rotate(90) scale(150)">
      <stop stop-color="#1A2CFF" stop-opacity="0.2"/>
      <stop offset="1" stop-color="#1A2CFF" stop-opacity="0"/>
    </radialGradient>
  </defs>
</svg>
