<svg width="1440" height="600" viewBox="0 0 1440 600" fill="none" xmlns="http://www.w3.org/2000/svg">
  <path fill="#0a1172" d="M0,192L48,197.3C96,203,192,213,288,229.3C384,245,480,267,576,250.7C672,235,768,181,864,181.3C960,181,1056,235,1152,234.7C1248,235,1344,181,1392,154.7L1440,128L1440,0L1392,0C1344,0,1248,0,1152,0C1056,0,960,0,864,0C768,0,672,0,576,0C480,0,384,0,288,0C192,0,96,0,48,0L0,0Z"></path>
  <path fill="#1a2cff" opacity="0.5" d="M0,192L48,197.3C96,203,192,213,288,229.3C384,245,480,267,576,250.7C672,235,768,181,864,181.3C960,181,1056,235,1152,234.7C1248,235,1344,181,1392,154.7L1440,128L1440,0L1392,0C1344,0,1248,0,1152,0C1056,0,960,0,864,0C768,0,672,0,576,0C480,0,384,0,288,0C192,0,96,0,48,0L0,0Z" transform="translate(0, 150)"></path>
</svg>
